<svg id="visual" viewBox="0 0 900 600" width="900" height="600" xmlns="http://www.w3.org/2000/svg" xmlns:xlink="http://www.w3.org/1999/xlink" version="1.1"><path d="M0 97L13.7 90C27.3 83 54.7 69 82 62C109.3 55 136.7 55 163.8 63C191 71 218 87 245.2 99C272.3 111 299.7 119 327 113C354.3 107 381.7 87 409 94C436.3 101 463.7 135 491 135C518.3 135 545.7 101 573 96C600.3 91 627.7 115 654.8 120C682 125 709 111 736.2 106C763.3 101 790.7 105 818 106C845.3 107 872.7 105 886.3 104L900 103L900 0L886.3 0C872.7 0 845.3 0 818 0C790.7 0 763.3 0 736.2 0C709 0 682 0 654.8 0C627.7 0 600.3 0 573 0C545.7 0 518.3 0 491 0C463.7 0 436.3 0 409 0C381.7 0 354.3 0 327 0C299.7 0 272.3 0 245.2 0C218 0 191 0 163.8 0C136.7 0 109.3 0 82 0C54.7 0 27.3 0 13.7 0L0 0Z" fill="#ffffff"></path><path d="M0 343L13.7 313C27.3 283 54.7 223 82 196C109.3 169 136.7 175 163.8 187C191 199 218 217 245.2 234C272.3 251 299.7 267 327 264C354.3 261 381.7 239 409 237C436.3 235 463.7 253 491 259C518.3 265 545.7 259 573 269C600.3 279 627.7 305 654.8 301C682 297 709 263 736.2 260C763.3 257 790.7 285 818 298C845.3 311 872.7 309 886.3 308L900 307L900 101L886.3 102C872.7 103 845.3 105 818 104C790.7 103 763.3 99 736.2 104C709 109 682 123 654.8 118C627.7 113 600.3 89 573 94C545.7 99 518.3 133 491 133C463.7 133 436.3 99 409 92C381.7 85 354.3 105 327 111C299.7 117 272.3 109 245.2 97C218 85 191 69 163.8 61C136.7 53 109.3 53 82 60C54.7 67 27.3 81 13.7 88L0 95Z" fill="#dbe9fe"></path><path d="M0 475L13.7 462C27.3 449 54.7 423 82 413C109.3 403 136.7 409 163.8 420C191 431 218 447 245.2 448C272.3 449 299.7 435 327 436C354.3 437 381.7 453 409 462C436.3 471 463.7 473 491 470C518.3 467 545.7 459 573 458C600.3 457 627.7 463 654.8 467C682 471 709 473 736.2 477C763.3 481 790.7 487 818 481C845.3 475 872.7 457 886.3 448L900 439L900 305L886.3 306C872.7 307 845.3 309 818 296C790.7 283 763.3 255 736.2 258C709 261 682 295 654.8 299C627.7 303 600.3 277 573 267C545.7 257 518.3 263 491 257C463.7 251 436.3 233 409 235C381.7 237 354.3 259 327 262C299.7 265 272.3 249 245.2 232C218 215 191 197 163.8 185C136.7 173 109.3 167 82 194C54.7 221 27.3 281 13.7 311L0 341Z" fill="#b4d4fc"></path><path d="M0 535L13.7 527C27.3 519 54.7 503 82 493C109.3 483 136.7 479 163.8 490C191 501 218 527 245.2 533C272.3 539 299.7 525 327 517C354.3 509 381.7 507 409 510C436.3 513 463.7 521 491 524C518.3 527 545.7 525 573 530C600.3 535 627.7 547 654.8 545C682 543 709 527 736.2 522C763.3 517 790.7 523 818 524C845.3 525 872.7 521 886.3 519L900 517L900 437L886.3 446C872.7 455 845.3 473 818 479C790.7 485 763.3 479 736.2 475C709 471 682 469 654.8 465C627.7 461 600.3 455 573 456C545.7 457 518.3 465 491 468C463.7 471 436.3 469 409 460C381.7 451 354.3 435 327 434C299.7 433 272.3 447 245.2 446C218 445 191 429 163.8 418C136.7 407 109.3 401 82 411C54.7 421 27.3 447 13.7 460L0 473Z" fill="#89c0fa"></path><path d="M0 601L13.7 601C27.3 601 54.7 601 82 601C109.3 601 136.7 601 163.8 601C191 601 218 601 245.2 601C272.3 601 299.7 601 327 601C354.3 601 381.7 601 409 601C436.3 601 463.7 601 491 601C518.3 601 545.7 601 573 601C600.3 601 627.7 601 654.8 601C682 601 709 601 736.2 601C763.3 601 790.7 601 818 601C845.3 601 872.7 601 886.3 601L900 601L900 515L886.3 517C872.7 519 845.3 523 818 522C790.7 521 763.3 515 736.2 520C709 525 682 541 654.8 543C627.7 545 600.3 533 573 528C545.7 523 518.3 525 491 522C463.7 519 436.3 511 409 508C381.7 505 354.3 507 327 515C299.7 523 272.3 537 245.2 531C218 525 191 499 163.8 488C136.7 477 109.3 481 82 491C54.7 501 27.3 517 13.7 525L0 533Z" fill="#4facf7"></path></svg>